<?xml version="1.0" encoding="UTF-8"?>
<!DOCTYPE svg PUBLIC "-//W3C//DTD SVG 1.1//EN" "http://www.w3.org/Graphics/SVG/1.1/DTD/svg11.dtd">
<svg xmlns="http://www.w3.org/2000/svg" version="1.1" width="108px" height="47px" style="shape-rendering:geometricPrecision; text-rendering:geometricPrecision; image-rendering:optimizeQuality; fill-rule:evenodd; clip-rule:evenodd" xmlns:xlink="http://www.w3.org/1999/xlink">
<g><path style="opacity:0.589" fill="#4caf5a" d="M 14.5,-0.5 C 15.1667,-0.5 15.8333,-0.5 16.5,-0.5C 16.5,1.16667 16.5,2.83333 16.5,4.5C 16.5,6.16667 16.5,7.83333 16.5,9.5C 15.8333,9.5 15.5,9.83333 15.5,10.5C 10.2013,12.0483 7.53467,15.7149 7.5,21.5C 9.5,21.5 11.5,21.5 13.5,21.5C 15.5475,23.5496 17.2141,25.883 18.5,28.5C 18.6621,30.5273 18.4955,32.5273 18,34.5C 17.586,34.9574 17.086,35.2907 16.5,35.5C 15.6858,33.2338 15.1858,30.9005 15,28.5C 13.8668,30.2112 12.3668,30.7112 10.5,30C 11.5,28.3333 12.5,26.6667 13.5,25C 11.5273,24.5045 9.5273,24.3379 7.5,24.5C 7.5,24.1667 7.5,23.8333 7.5,23.5C 6.08134,22.5489 4.41467,22.2155 2.5,22.5C 2.30855,13.8773 5.97521,7.54395 13.5,3.5C 14.2458,2.26381 14.5792,0.930472 14.5,-0.5 Z"/></g>
<g><path style="opacity:0.675" fill="#00383e" d="M 26.5,22.5 C 26.2513,15.6228 22.918,11.2895 16.5,9.5C 16.5,7.83333 16.5,6.16667 16.5,4.5C 22.1562,3.75221 26.3228,6.08555 29,11.5C 29.6241,15.5748 31.4574,18.9082 34.5,21.5C 31.9135,22.48 29.2469,22.8134 26.5,22.5 Z"/></g>
<g><path style="opacity:0.422" fill="#4caf5a" d="M 15.5,10.5 C 16.4959,10.4142 17.3292,10.7476 18,11.5C 18.3333,13.5 18.6667,15.5 19,17.5C 20.1855,15.4407 21.3521,15.274 22.5,17C 22.0969,18.4728 21.4303,19.8061 20.5,21C 22.5856,21.3153 24.5856,21.8153 26.5,22.5C 26.5,22.8333 26.5,23.1667 26.5,23.5C 24.6208,24.3414 22.6208,24.6747 20.5,24.5C 18.4525,22.4504 16.7859,20.117 15.5,17.5C 15.5,15.1667 15.5,12.8333 15.5,10.5 Z"/></g>
<g><path style="opacity:0.665" fill="#4daf5b" d="M 41.5,10.5 C 45.6388,9.70415 48.8055,11.0375 51,14.5C 52.7422,20.1893 52.7422,25.8559 51,31.5C 48.8387,35.1241 45.672,36.2907 41.5,35C 39.9588,33.4207 38.7922,31.5873 38,29.5C 36.5096,22.5577 37.6763,16.2244 41.5,10.5 Z M 43.5,15.5 C 45.0174,15.5106 46.1841,16.1772 47,17.5C 47.6667,21.1667 47.6667,24.8333 47,28.5C 45.9207,30.3937 44.5874,30.727 43,29.5C 42.2266,24.7481 42.3932,20.0815 43.5,15.5 Z"/></g>
<g><path style="opacity:0.643" fill="#4daf5b" d="M 55.5,10.5 C 58.6021,10.154 61.4355,10.8207 64,12.5C 64.624,14.4645 64.124,16.1311 62.5,17.5C 61.1502,16.0499 59.4835,15.3832 57.5,15.5C 57.3433,16.8734 57.51,18.2068 58,19.5C 63.7058,21.5781 65.7058,25.5781 64,31.5C 61.1762,36.0281 57.5095,36.6947 53,33.5C 52.5438,28.6043 54.2105,27.6043 58,30.5C 59.2798,30.3865 60.1131,29.7199 60.5,28.5C 57.5064,26.3383 55.0064,23.6717 53,20.5C 52.0239,16.673 52.8572,13.3396 55.5,10.5 Z"/></g>
<g><path style="opacity:0.663" fill="#003a40" d="M 69.5,10.5 C 73.5393,9.65968 76.5393,10.993 78.5,14.5C 77.1004,18.1542 75.1004,18.4876 72.5,15.5C 71.914,15.7093 71.414,16.0426 71,16.5C 69.4961,20.0387 69.1628,23.7054 70,27.5C 70.3678,28.91 71.2011,29.91 72.5,30.5C 73.9505,29.3446 74.9505,27.8446 75.5,26C 74.2068,25.51 72.8734,25.3433 71.5,25.5C 71.5,23.8333 71.5,22.1667 71.5,20.5C 74.1667,20.5 76.8333,20.5 79.5,20.5C 79.8537,24.6372 79.3537,28.6372 78,32.5C 73.1809,36.9191 69.1809,36.2524 66,30.5C 65.3333,25.5 65.3333,20.5 66,15.5C 66.9973,13.6769 68.1639,12.0103 69.5,10.5 Z"/></g>
<g><path style="opacity:0.67" fill="#003a3f" d="M 85.5,14.5 C 87.3084,14.4914 88.9751,14.9914 90.5,16C 91.5418,17.918 92.7085,19.7513 94,21.5C 96.8519,13.2087 100.852,12.5421 106,19.5C 106.667,23.5 106.667,27.5 106,31.5C 102.829,36.4141 99.1628,36.7475 95,32.5C 94.3333,30.5 93.6667,28.5 93,26.5C 90.2595,27.2822 87.4262,27.7822 84.5,28C 86.3211,30.1366 88.6544,30.9699 91.5,30.5C 91.5,32.1667 91.5,33.8333 91.5,35.5C 86.561,36.6481 83.061,34.9814 81,30.5C 80.3333,26.8333 80.3333,23.1667 81,19.5C 82.025,17.313 83.525,15.6464 85.5,14.5 Z M 85.5,20.5 C 86.675,20.281 87.675,20.6143 88.5,21.5C 87.277,22.6139 85.9437,22.7805 84.5,22C 85.056,21.6174 85.3893,21.1174 85.5,20.5 Z M 98.5,20.5 C 99.8221,20.33 100.989,20.6634 102,21.5C 102.936,24.792 102.436,27.792 100.5,30.5C 99.914,30.2907 99.414,29.9574 99,29.5C 98.502,26.5184 98.3354,23.5184 98.5,20.5 Z"/></g>
<g><path style="opacity:0.512" fill="#043c40" d="M 15.5,17.5 C 16.7859,20.117 18.4525,22.4504 20.5,24.5C 22.136,26.3835 22.4693,28.3835 21.5,30.5C 20.4822,29.8075 19.4822,29.1408 18.5,28.5C 17.2141,25.883 15.5475,23.5496 13.5,21.5C 12.6394,19.6137 11.6394,17.7804 10.5,16C 12.4952,15.3872 14.1619,15.8872 15.5,17.5 Z"/></g>
<g><path style="opacity:0.675" fill="#003940" d="M -0.5,23.5 C 2.16667,23.5 4.83333,23.5 7.5,23.5C 7.5,23.8333 7.5,24.1667 7.5,24.5C 7.6119,30.7436 10.6119,34.7436 16.5,36.5C 16.5,38.5 16.5,40.5 16.5,42.5C 8.54441,40.7088 3.71107,35.7088 2,27.5C 1.2917,26.6195 0.458367,25.9528 -0.5,25.5C -0.5,24.8333 -0.5,24.1667 -0.5,23.5 Z"/></g>
<g><path style="opacity:0.649" fill="#51b25c" d="M 26.5,23.5 C 28.1667,23.5 29.8333,23.5 31.5,23.5C 31.583,32.0669 27.9163,38.4003 20.5,42.5C 19.7542,43.7362 19.4208,45.0695 19.5,46.5C 18.5,46.5 17.5,46.5 16.5,46.5C 16.5,45.1667 16.5,43.8333 16.5,42.5C 16.5,40.5 16.5,38.5 16.5,36.5C 22.9348,34.6592 26.2682,30.3259 26.5,23.5 Z"/></g>
</svg>
